:FULLY-SPECIFIED
:FORCE-ALL-JOINTS-BE-3DOF
:DEGREES
1325
root -1.70074 14.5438 8.08709 352.343 31.7256 363.227
lfemur 5.37624 0.118229 -14.3492
ltibia 55.1942 0 0
lfoot -31.1605 30.5346 0
ltoes -17.6784 0 0
rfemur -37.0364 -4.39066 -4.59233
rtibia 29.7705 0 0
rfoot 33.2116 2.12812 0
rtoes 5.24865 0 0
lowerback 12.3411 0.404768 -12.6495
upperback -1.40676 -1.39784 -0.140669
thorax -8.23521 -0.0911961 7.26994
lowerneck -0.721502 -10.9554 -11.5614
upperneck 10.6595 -15.3886 10.0635
head 4.98437 -7.61349 4.05175
lclavicle 5.24776e-14 7.51639e-15 0
lhumerus -78.7844 -17.7352 108.541
lradius 99.2951 0 0
lwrist 64.4752 0 0
lhand -12.6024 29.2293 0
lfingers 7.12502 0 0
lthumb 13.4777 -301.194 0
rclavicle 5.24776e-14 7.51639e-15 0
rhumerus 68.2249 -2.6843 -29.7371
rradius 77.7398 0 0
rwrist 33.2709 0 0
rhand -41.3809 -38.5523 0
rfingers 7.12502 0 0
rthumb -14.301 -68.1467 0
1326
root -1.71946 14.5208 8.24612 352.651 32.6991 363.367
lfemur 7.20078 -0.354747 -13.456
ltibia 54.2382 0 0
lfoot -31.3011 31.3736 0
ltoes -17.6617 0 0
rfemur -37.1067 -4.91794 -5.0249
rtibia 29.3284 0 0
rfoot 33.1535 2.90128 0
rtoes 4.68444 0 0
lowerback 12.248 0.429852 -12.7902
upperback -1.44016 -1.38252 -0.195018
thorax -8.22445 -0.0765943 7.28556
lowerneck -0.32543 -11.2571 -11.7599
upperneck 10.3263 -15.8232 10.2676
head 4.88888 -7.83842 4.13086
lclavicle 5.31843e-14 7.85476e-15 0
lhumerus -84.976 -16.1283 109.86
lradius 99.9256 0 0
lwrist 65.7346 0 0
lhand -11.9902 28.9829 0
lfingers 7.12502 0 0
lthumb 14.0688 -301.451 0
rclavicle 5.31843e-14 7.85476e-15 0
rhumerus 71.973 -4.76118 -26.3851
rradius 77.775 0 0
rwrist 38.3884 0 0
rhand -43.0045 -37.1865 0
rfingers 7.12502 0 0
rthumb -15.8677 -66.7642 0
1327
root -1.73817 14.4978 8.40515 352.923 33.4912 363.475
lfemur 8.59908 -0.718489 -12.713
ltibia 53.5568 0 0
lfoot -31.4098 32.0952 0
ltoes -17.4856 0 0
rfemur -37.2482 -5.42459 -5.29244
rtibia 29.193 0 0
rfoot 32.8681 3.53037 0
rtoes 4.0968 0 0
lowerback 12.1778 0.453176 -12.9093
upperback -1.47387 -1.36777 -0.237307
thorax -8.22757 -0.0621966 7.30251
lowerneck 0.00252175 -11.5035 -11.9296
upperneck 10.0376 -16.178 10.4433
head 4.80696 -8.02239 4.19991
lclavicle 5.36094e-14 8.16582e-15 0
lhumerus -89.7943 -14.8802 110.877
lradius 100.44 0 0
lwrist 66.7221 0 0
lhand -11.5605 28.8527 0
lfingers 7.12502 0 0
lthumb 14.4838 -301.587 0
rclavicle 5.36094e-14 8.16582e-15 0
rhumerus 74.8711 -6.4557 -23.7395
rradius 77.8099 0 0
rwrist 42.4134 0 0
rhand -44.2998 -36.0623 0
rfingers 7.12502 0 0
rthumb -17.1176 -65.6245 0
1328
root -1.75688 14.4748 8.56418 353.166 34.1154 363.555
lfemur 9.6146 -0.982965 -12.1071
ltibia 53.1124 0 0
lfoot -31.4844 32.7093 0
ltoes -17.1702 0 0
rfemur -37.4622 -5.9163 -5.40491
rtibia 29.3486 0 0
rfoot 32.3648 4.02957 0
rtoes 3.48834 0 0
lowerback 12.128 0.475539 -13.0071
upperback -1.50828 -1.35243 -0.268845
thorax -8.24364 -0.0475079 7.31935
lowerneck 0.26835 -11.6992 -12.0725
upperneck 9.78863 -16.46 10.5929
head 4.73702 -8.16894 4.25966
lclavicle 5.37573e-14 8.44405e-15 0
lhumerus -93.3544 -13.9598 111.617
lradius 100.847 0 0
lwrist 67.4583 0 0
lhand -11.2958 28.8349 0
lfingers 7.12502 0 0
lthumb 14.7395 -301.606 0
rclavicle 5.37573e-14 8.44405e-15 0
rhumerus 76.9899 -7.80325 -21.7397
rradius 77.8458 0 0
rwrist 45.4363 0 0
rhand -45.2951 -35.1575 0
rfingers 7.12502 0 0
rthumb -18.078 -64.7056 0
1329
root -1.77559 14.4518 8.72321 353.387 34.5853 363.61
lfemur 10.2908 -1.15814 -11.6256
ltibia 52.867 0 0
lfoot -31.5228 33.2256 0
ltoes -16.7356 0 0
rfemur -37.7501 -6.39876 -5.37228
rtibia 29.7799 0 0
rfoot 31.6531 4.41306 0
rtoes 2.86172 0 0
lowerback 12.0958 0.497742 -13.0842
upperback -1.54378 -1.33533 -0.290941
thorax -8.27172 -0.0320332 7.33462
lowerneck 0.478051 -11.8492 -12.1907
upperneck 9.5743 -16.676 10.7185
head 4.67747 -8.28163 4.31086
lclavicle 5.36323e-14 8.6839e-15 0
lhumerus -95.771 -13.3358 112.103
lradius 101.159 0 0
lwrist 67.9637 0 0
lhand -11.1788 28.9256 0
lfingers 7.12502 0 0
lthumb 14.8527 -301.513 0
rclavicle 5.36323e-14 8.6839e-15 0
rhumerus 78.4001 -8.83924 -20.3253
rradius 77.8841 0 0
rwrist 47.5475 0 0
rhand -46.0187 -34.4503 0
rfingers 7.12502 0 0
rthumb -18.776 -63.9852 0
1330
root -1.79431 14.4288 8.88224 353.595 34.9144 363.645
lfemur 10.6711 -1.25399 -11.2553
ltibia 52.783 0 0
lfoot -31.5226 33.654 0
ltoes -16.2018 0 0
rfemur -38.1133 -6.87766 -5.20451
rtibia 30.4712 0 0
rfoot 30.7425 4.69499 0
rtoes 2.21955 0 0
lowerback 12.0788 0.520584 -13.1408
upperback -1.58078 -1.31531 -0.304905
thorax -8.31089 -0.0152775 7.34688
lowerneck 0.637621 -11.9584 -12.2859
upperneck 9.38967 -16.833 10.8223
head 4.62674 -8.36402 4.35426
lclavicle 5.32388e-14 8.87983e-15 0
lhumerus -97.1591 -12.9768 112.359
lradius 101.386 0 0
lwrist 68.2588 0 0
lhand -11.192 29.1209 0
lfingers 7.12502 0 0
lthumb 14.8401 -301.311 0
rclavicle 5.32388e-14 8.87983e-15 0
rhumerus 79.1727 -9.59908 -19.4356
rradius 77.9262 0 0
rwrist 48.8373 0 0
rhand -46.4986 -33.9186 0
rfingers 7.12502 0 0
rthumb -19.239 -63.441 0
1331
root -1.81302 14.4058 9.04127 353.797 35.1163 363.663
lfemur 10.799 -1.28047 -10.9836
ltibia 52.8224 0 0
lfoot -31.4817 34.0044 0
ltoes -15.5891 0 0
rfemur -38.553 -7.35869 -4.91155
rtibia 31.4071 0 0
rfoot 29.6425 4.88954 0
rtoes 1.56447 0 0
lowerback 12.0743 0.544866 -13.1775
upperback -1.61968 -1.29121 -0.312045
thorax -8.36022 0.00325415 7.35468
lowerneck 0.753055 -12.0316 -12.3603
upperneck 9.22979 -16.9379 10.9064
head 4.58323 -8.41966 4.3906
lclavicle 5.2581e-14 9.0263e-15 0
lhumerus -97.6336 -12.8518 112.409
lradius 101.537 0 0
lwrist 68.364 0 0
lhand -11.318 29.4171 0
lfingers 7.12502 0 0
lthumb 14.7187 -301.006 0
rclavicle 5.2581e-14 9.0263e-15 0
rhumerus 79.3785 -10.1182 -19.0101
rradius 77.9736 0 0
rwrist 49.3961 0 0
rhand -46.7631 -33.5402 0
rfingers 7.12502 0 0
rthumb -19.494 -63.051 0
